<svg viewBox="0 0 40 26" xmlns="http://www.w3.org/2000/svg"><g fill="#5f6368"><path d="m19.54 13.65v4.01h-1.27v-9.9h3.38c.81-.02 1.6.29 2.19.86.59.53.93 1.3.91 2.09.02.8-.32 1.57-.91 2.1-.59.56-1.32.84-2.19.84h-2.1zm0-4.68v3.46h2.14c.47.01.93-.17 1.26-.51.67-.65.68-1.72.03-2.39-.01-.01-.02-.02-.03-.03-.33-.35-.78-.54-1.26-.53z"/><path d="m27.68 10.66c.94 0 1.68.25 2.23.75.54.5.82 1.19.82 2.07v4.18h-1.22v-.94h-.06c-.53.77-1.23 1.16-2.1 1.16-.75 0-1.37-.22-1.87-.66-.49-.41-.77-1.02-.75-1.66 0-.7.27-1.26.8-1.67s1.24-.62 2.12-.62c.76 0 1.38.14 1.87.42v-.29c0-.44-.19-.85-.53-1.13-.34-.3-.78-.47-1.23-.46-.71 0-1.27.3-1.69.9l-1.12-.71c.62-.89 1.53-1.33 2.74-1.33zm-1.65 4.93c0 .33.16.64.42.83.28.22.63.34.99.33.54 0 1.05-.21 1.43-.59.42-.4.63-.86.63-1.4-.4-.32-.95-.47-1.66-.47-.52 0-.95.12-1.29.37-.35.25-.52.56-.52.93z"/><path d="m37.71 10.89-4.25 9.77h-1.31l1.58-3.42-2.8-6.35h1.38l2.02 4.87h.03l1.97-4.87h1.39z"/></g><path d="m14.4 12.79c0-.39-.03-.78-.1-1.16h-5.37v2.19h3.08c-.13.71-.54 1.33-1.14 1.73v1.42h1.84c1.07-.99 1.69-2.46 1.69-4.19z" fill="#4285f4"/><path d="m8.93 18.35c1.54 0 2.83-.5 3.77-1.37l-1.84-1.42c-.51.35-1.17.54-1.94.54-1.49 0-2.75-1-3.2-2.35h-1.89v1.47c.97 1.92 2.93 3.14 5.09 3.14z" fill="#34a853"/><path d="m5.73 13.75c-.24-.71-.24-1.47 0-2.18v-1.47h-1.89c-.81 1.61-.81 3.5 0 5.11l1.89-1.47z" fill="#fbbc04"/><path d="m8.93 9.22c.81-.01 1.6.29 2.18.85l1.63-1.63c-1.03-.97-2.4-1.5-3.81-1.48-2.15 0-4.12 1.21-5.09 3.14l1.89 1.47c.45-1.35 1.71-2.35 3.2-2.35z" fill="#ea4335"/></svg>